<svg xmlns="http://www.w3.org/2000/svg" xmlns:xlink="http://www.w3.org/1999/xlink" viewBox="0 0 534.36 362.21"><defs><style>.cls-1{isolation:isolate;}.cls-12,.cls-2,.cls-23{fill:#fff;}.cls-3{fill:#e0f4fc;}.cls-4{fill:#00b3f9;}.cls-5{fill:#0d5375;}.cls-6{fill:#65b8d1;}.cls-15,.cls-23,.cls-24,.cls-34,.cls-7{opacity:0.25;mix-blend-mode:overlay;}.cls-8{fill:#8bdef2;}.cls-16,.cls-17,.cls-24,.cls-25,.cls-27,.cls-34,.cls-9{fill:none;}.cls-9{stroke:#65b8d1;}.cls-16,.cls-17,.cls-24,.cls-25,.cls-34,.cls-9{stroke-miterlimit:10;stroke-width:1.29px;}.cls-10{fill:#a5cad3;}.cls-11{fill:#cae7ef;}.cls-12{opacity:0.55;}.cls-13{fill:#008eba;}.cls-14{fill:#02374c;}.cls-16,.cls-17,.cls-24,.cls-25{stroke:#f9f9f9;}.cls-16,.cls-17,.cls-25,.cls-34{stroke-linecap:round;}.cls-17{stroke-dasharray:4.36 4.36;}.cls-18{fill:url(#linear-gradient);}.cls-19{fill:#0c1c28;}.cls-20{fill:url(#linear-gradient-2);}.cls-21{fill:#07171c;}.cls-22{fill:url(#linear-gradient-3);}.cls-25{stroke-dasharray:4.62 4.62;}.cls-26{fill:#1c1c1c;}.cls-28{fill:url(#linear-gradient-4);}.cls-29{fill:url(#linear-gradient-5);}.cls-30{fill:#3a1508;}.cls-31{fill:#11191e;}.cls-32{fill:#1c262d;}.cls-33{fill:#add0d8;}.cls-34{stroke:#000;}.cls-35{fill:#55c6ff;}.cls-36{fill:#003c54;}.cls-37{fill:#16374c;}</style><linearGradient id="linear-gradient" x1="214.37" y1="183.74" x2="298.76" y2="191.54" gradientUnits="userSpaceOnUse"><stop offset="0" stop-color="#ffa894"/><stop offset="1" stop-color="#fc7b65"/></linearGradient><linearGradient id="linear-gradient-2" x1="270.28" y1="196" x2="354.59" y2="203.79" xlink:href="#linear-gradient"/><linearGradient id="linear-gradient-3" x1="324.01" y1="158.62" x2="333.79" y2="128.83" xlink:href="#linear-gradient"/><linearGradient id="linear-gradient-4" x1="221.48" y1="172.1" x2="220.1" y2="206.01" gradientUnits="userSpaceOnUse"><stop offset="0" stop-color="#ffb000"/><stop offset="1" stop-color="#ff6700"/></linearGradient><linearGradient id="linear-gradient-5" x1="245.82" y1="186.46" x2="243.16" y2="229.91" gradientUnits="userSpaceOnUse"><stop offset="0" stop-color="#4c1710"/><stop offset="1" stop-color="#723328"/></linearGradient></defs><g class="cls-1"><g id="Layer_2" data-name="Layer 2"><g id="OBJECTS"><path class="cls-2" d="M410.94,246a15.31,15.31,0,0,0,15.31,15.32h47.63a23.62,23.62,0,0,1,0,47.24H397.64a5.95,5.95,0,1,0,0,11.89h34.74a20.47,20.47,0,0,1,5.35.81l.3.08A20.91,20.91,0,0,1,432,362.21H96.18a20,20,0,0,1-14.12-34.09c.23-.22.45-.44.69-.65a19.89,19.89,0,0,1,13.43-5.2H103a8.27,8.27,0,0,0,8.27-8.27,8.41,8.41,0,0,0-.69-3.33,8.19,8.19,0,0,0-1.73-2.53,8.29,8.29,0,0,0-5.85-2.42H37.47A20.37,20.37,0,0,1,17.2,287.39c-.06-.67-.1-1.34-.1-2A20.38,20.38,0,0,1,37.47,265H66.24a13.41,13.41,0,0,0,0-26.82H24.44a24.44,24.44,0,0,1,0-48.88h31.7a21.45,21.45,0,0,0,21.45-21.45V84.65A11.79,11.79,0,0,1,89.38,72.86a11.81,11.81,0,0,0,11.79-11.8V39.18A39.18,39.18,0,0,1,140.36,0H394.44a19.71,19.71,0,0,1,0,39.41H373.25a9.85,9.85,0,0,0,0,19.7h93.07a34.25,34.25,0,1,1,0,68.49,29.25,29.25,0,0,0-29.26,29.27v.64a29.27,29.27,0,0,0,29.26,29.27h9.25a21.93,21.93,0,0,1,21.93,21.93c0,.58,0,1.15-.07,1.71a21.91,21.91,0,0,1-21.86,20.21H426.25A15.31,15.31,0,0,0,410.94,246Z"/><circle class="cls-3" cx="59.72" cy="48.8" r="13.29" transform="translate(-17.02 56.52) rotate(-45)"/><circle class="cls-3" cx="521.07" cy="282.06" r="13.29" transform="translate(-68.28 220.88) rotate(-22.5)"/><path class="cls-4" d="M295.45,278.61a1.65,1.65,0,0,1-.57-.11,1.59,1.59,0,0,1-1-1.5V233.84a1.6,1.6,0,0,1,1.6-1.61h38.26a1.61,1.61,0,0,1,1.47,1,1.63,1.63,0,0,1-.26,1.73l-38.27,43.16A1.6,1.6,0,0,1,295.45,278.61Zm1.61-43.16v37.32l33.08-37.32Z"/><path class="cls-5" d="M339.67,237.05h-62.8a3.21,3.21,0,0,1-3.2-3.21h0a3.21,3.21,0,0,1,3.2-3.21h62.8a3.21,3.21,0,0,1,3.21,3.21h0A3.21,3.21,0,0,1,339.67,237.05Z"/><path class="cls-6" d="M414.14,147s-12.22,81.64-12.49,82.46-33.18,44.39-33.18,44.39l-20.9-12.59-7.84-77,16.23-35L357,147h11.45s3.82-8.47,15.13-8.47a16.78,16.78,0,0,1,4.9.66l.05,0,.08,0a9,9,0,0,1,6.58,7.77Z"/><path class="cls-7" d="M414.14,147s-12.22,81.64-12.49,82.46-33.18,44.39-33.18,44.39l-20.9-12.59-7.84-77,16.23-35c2.8.22,7.14,2.67,12.51,12.53,9.7,17.8,14.74,21.23,21.62,21,5.38-.17,8.37-24.8,18.42-35.81Z"/><path class="cls-8" d="M403.31,147h-8.1a9,9,0,0,0-6.58-7.77c1.35.39,12.18,3.53,13.26,5.17A19.81,19.81,0,0,1,403.31,147Z"/><path class="cls-5" d="M300.52,277a5.07,5.07,0,1,1-5.07-5.06A5.06,5.06,0,0,1,300.52,277Z"/><path class="cls-9" d="M117.21,93.53l6.38-16.48A1.32,1.32,0,0,1,126,77l7.23,17.47"/><circle class="cls-10" cx="124.76" cy="117.16" r="25.43" transform="translate(-19.77 208.83) rotate(-75.58)"/><circle class="cls-11" cx="126.6" cy="117.16" r="25.43" transform="translate(-45.77 123.83) rotate(-45)"/><circle class="cls-12" cx="126.6" cy="117.16" r="16.94" transform="translate(-37.46 170.44) rotate(-60.77)"/><path class="cls-9" d="M214.14,38.45,220.52,22a1.32,1.32,0,0,1,2.45,0l7.23,17.48"/><circle class="cls-11" cx="221.69" cy="62.09" r="25.43"/><circle class="cls-2" cx="223.53" cy="62.09" r="25.43"/><circle class="cls-11" cx="223.53" cy="62.09" r="16.94"/><polygon class="cls-13" points="282.46 362.21 276.42 362.21 237.99 214.67 244.02 214.67 282.46 362.21"/><polygon class="cls-7" points="282.46 362.21 279.16 362.21 240.72 214.67 244.02 214.67 282.46 362.21"/><path class="cls-5" d="M305.39,249.42,302.11,258s-3.56,5.48-8.24,11.48l-.16.19-.07.1c-4.38,5.59-9.68,11.55-13.93,13.89-3.69,2-11.23,12.88-18.84,24.87-10.7,16.84-21.53,35.91-22.07,35.91-.91,0-14.05-7.33-14.36-8.86s24.74-53.9,32.35-66.48c.23-.38.45-.72.65-1,2.7-4.17,8.09-8.63,13.56-12.47,2.24-1.58,4.49-3,6.58-4.34,5.53-3.45,9.94-5.75,9.94-5.75L303.25,249Z"/><path class="cls-14" d="M275.3,260.26c-3.36,2.16-11.45,10.55-13.89,11-1.53.28-3.42-1.1-4.62-2.18.23-.38.45-.72.65-1,3.8-5.87,12.93-12.32,20.14-16.81A6.12,6.12,0,0,1,275.3,260.26Z"/><path class="cls-7" d="M303.25,249c-1.75,4.82-7.85,18.32-9.38,20.51l-.16.19-.07.1c-4.38,5.59-9.68,11.55-13.93,13.89-3.69,2-11.23,12.88-18.84,24.87C267,292.45,270,266.89,271,255.58c2.24-1.58,4.49-3,6.58-4.34,5.53-3.45,9.94-5.75,9.94-5.75Z"/><g class="cls-15"><path class="cls-16" d="M282.06,265a17.23,17.23,0,0,0-1.78,1.36"/><path class="cls-17" d="M277.1,269.34c-3.43,3.53-8.4,9.57-14.17,19.33-8.62,14.61-19.21,37.47-23.38,46.68"/><path class="cls-16" d="M238.65,337.33l-.92,2.05"/></g><path class="cls-5" d="M366.74,267.75c-4.22,6.87-12.44,5-24.75,3.36s-32-.3-34.91.76c-1.75.65-7.05,27.26-11.52,48.53-2.38,11.37-4.53,21.22-5.78,24.77h0c-.3.84-.54,1.32-.73,1.39-2.44.91-10.23,2.6-15.88-2.44-.91-15.56-.38-52.35,3.35-75.63,1.25-7.81,2.87-14.09,4.9-17.55s6.53-6.12,12.06-8.11l.06,0,.08,0c.16-.07.32-.12.48-.18a107.72,107.72,0,0,1,20.9-4.43c3.33,4.77,13.53,2.89,21.36,4.1a53,53,0,0,0,6.59.52c9,.25,20.95-.87,23.79-3.51C367,239.7,375.35,253.73,366.74,267.75Z"/><path class="cls-7" d="M366.74,267.75c-4.22,6.87-12.44,5-24.75,3.36s-32-.3-34.91.76c-1.75.65-7.05,27.26-11.52,48.53,1.69-20.13,4.76-55.52,5.71-55.4,1.22.15,5.65,4.65,5.65,4.65s37.92-4.58,33.48-10.41-21.79-15.82-29.81-17.65c-7.44-1.7-15.8.82-17,1.2.16-.07.32-.12.48-.18a107.72,107.72,0,0,1,20.9-4.43c3.33,4.77,13.53,2.89,21.36,4.1a53,53,0,0,0,6.59.52c9,.25,20.95-.87,23.79-3.51C367,239.7,375.35,253.73,366.74,267.75Z"/><path class="cls-18" d="M302.11,195.5l-9.24,1.07s-9.13-.26-19.94-.59c-14.08-.43-31-1-34.28-1.24-5.81-.46-16.65-2.91-15.89-4.58s7.64-2.45,10.85-2.6,8.86,2.6,11,2.6c1.85,0,25.27-.92,32.85-1.37,1.17-.07,2-.12,2.25-.16,2.12-.3,10.89-6.6,10.89-6.6l6.64,1.83Z"/><path class="cls-7" d="M302.11,195.5l-9.24,1.07s-9.13-.26-19.94-.59l4.53-7.19c1.17-.07,2-.12,2.25-.16,2.12-.3,10.89-6.6,10.89-6.6l6.64,1.83Z"/><path class="cls-19" d="M367.29,238.5a1.9,1.9,0,0,1-.55.78h0c-2.84,2.64-14.76,3.76-23.79,3.51a53,53,0,0,1-6.59-.52c-7.83-1.21-18,.67-21.36-4.1a5.92,5.92,0,0,1-1-2.43c-1.26-7.16,3.62-17.12,3-28.48-.05-1-.16-2-.3-3s-.33-2.21-.48-3.33c-.1-.66-.19-1.33-.28-2-.44-3.15-.85-6.3-1.2-9.32-5.46,2.71-12.8,6.51-14.45,6.28a3,3,0,0,1-1.37-.79c-3.34-2.83-9.42-12.22-8.14-13.3,1.49-1.26,29.9-21.76,29.9-21.76a39.18,39.18,0,0,1,8.86-5c1.29-.54,2.65-1,4.08-1.49h0a54.51,54.51,0,0,1,5.3-1.39s1,.17,2.6.51l.07,0c1.08.22,2.43.52,3.91.9l.16,0c5.79,1.48,13.53,4,15.67,7.52a14,14,0,0,1,1.29,4.27c2.45,12.84,3,47,3.53,52.7C366.72,224.75,368.67,234.49,367.29,238.5Z"/><path class="cls-7" d="M367.29,238.5c-1.1,3.2-14.45,4.58-24.34,4.3,7.51-2,12.2-5.56,12.62-9.11.69-5.81-4.81-7.79-15.67-10.24-7.25-1.63-17.14-10.47-22.91-16.18-.05-1-.16-2-.3-3s-.33-2.21-.48-3.33c15.27-7.53,43.69-39.1,43.69-39.1l2.72,3.59c2.45,12.84,3,47,3.53,52.7C366.72,224.75,368.67,234.49,367.29,238.5Z"/><path class="cls-7" d="M317.64,193.06V199l-1.71-.09c-.44-3.15-.85-6.3-1.2-9.32-5.46,2.71-12.8,6.51-14.45,6.28a3,3,0,0,1-1.37-.79c8.26-5,15.44-24.05,18.73-25.55C315.52,173.51,317.64,193.06,317.64,193.06Z"/><path class="cls-19" d="M368.47,180.23c.07,5.76-3.16,13.6-5.73,18.05-1.23,2.13-2.31,3.49-2.79,3.45a6.5,6.5,0,0,1-1.41-.5c-3.9-1.73-14-7.67-15.87-13,.54-.94,1.07-1.85,1.6-2.75,9.08-15.4,16.09-24.47,16.69-24.85C361,160.61,368.27,164.23,368.47,180.23Z"/><path class="cls-20" d="M358.54,201.23c-1.76,2.25-5.11,6.36-8.59,10-3.89,4.06-7.95,7.51-10.15,7.06-5.1-1-40-26.75-43.3-27.26s-16.84.69-16.79-.23,7.4-8.76,10.89-8.76,11.68,4.29,15.24,4.69,31.43,10.77,31.43,10.77l3.13-5.37,2.27-3.91C344.52,193.56,354.64,199.5,358.54,201.23Z"/><path class="cls-7" d="M345.66,153.62c-2.46,6.87-10,12-14.42,10.07-3.67-1.58-2.46-6.47-1.71-8.66,1.29-.54,2.65-1,4.08-1.49h0l7.9-.88.07,0,3.91.9Z"/><path class="cls-21" d="M321.78,143.83l-3.33.58-.47.08c-2.66.47-5.43-2.65-6.19-7s.78-8.2,3.44-8.67l3.81-.66a3,3,0,0,0-1.3.56,2.67,2.67,0,0,0-.49.41,6,6,0,0,0-1.48,2.72,11.36,11.36,0,0,0-.18,5,11.5,11.5,0,0,0,1.85,4.62,6.26,6.26,0,0,0,2.32,2.06A3.33,3.33,0,0,0,321.78,143.83Z"/><path class="cls-7" d="M321.78,143.83l-3.33.58c-2.16-.6-4.14-3.35-4.76-6.89-.76-4.32.78-8.2,3.44-8.67l.61-.1a2.67,2.67,0,0,0-.49.41,6,6,0,0,0-1.48,2.72,11.36,11.36,0,0,0-.18,5,11.5,11.5,0,0,0,1.85,4.62,6.26,6.26,0,0,0,2.32,2.06A3.33,3.33,0,0,0,321.78,143.83Z"/><path class="cls-19" d="M348.17,124.76c-.39,7.1-3.1,15.36-8.13,20.94h0l-5-17.18s-5.41,2.29-11.75,4.74c-3.18,1.22-5.75,2.21-8.29,2.45a12.57,12.57,0,0,1-8-2.08,8.54,8.54,0,0,1-2.87-11.33,5.31,5.31,0,0,1,4.62-2.6c1.38-10.54,9.79-12.72,14.92-7.45a.78.78,0,0,0,.26.17l0,0c1.83.86,8.86-.76,8.86-.76s2.2-2.65,6.95-1.8a14.93,14.93,0,0,1,3.7,1.23C347,112.75,348.53,118.28,348.17,124.76Z"/><path class="cls-22" d="M342.28,153.35c-2.06,7.41-9.09,8.24-10.08,7.63-.47-.29-1.4-2.31-2.24-4.34s-1.62-4.11-1.74-4.44l0,0a.48.48,0,0,1-.18.07,2.74,2.74,0,0,1-1,0,9.24,9.24,0,0,1-3.32-1.41c-5.45-3.38-7.82-11.39-8.55-14.45-.05-.25-.11-.48-.14-.66,2.54-.24,5.11-1.23,8.29-2.45,6.34-2.45,11.75-4.74,11.75-4.74l3.9,13.37,1.11,3.81h0A46.61,46.61,0,0,0,342.28,153.35Z"/><path class="cls-7" d="M348.17,124.76c-.39,7.1-3.1,15.36-8.13,20.94h0l-5-17.18s-5.41,2.29-11.75,4.74c-3.18,1.22-5.75,2.21-8.29,2.45a12.57,12.57,0,0,1-8-2.08,8.54,8.54,0,0,1-2.87-11.33,9.23,9.23,0,0,0,4,8.21s-1.08-3.31.47-5.77c.05,2.87,1.77,5.73,8.1,6.39s13.66-4,12.34-10a14.49,14.49,0,0,0-5.08-8.64c1.83.86,8.86-.76,8.86-.76s2.2-2.65,6.95-1.8c-2.22,2.92,4.48,11.54,7.53,13.88A4,4,0,0,1,348.17,124.76Z"/><path class="cls-7" d="M330,156.64c-.86-2-1.62-4.11-1.74-4.44,1.48-.2,4-1.08,5.91-4.54C335,149.52,331.35,154.75,330,156.64Z"/><path class="cls-7" d="M338.92,141.9c-5-3.09-9.79-7.73-17.14-6.18a25.7,25.7,0,0,1-6.66.66c-.05-.25-.11-.48-.14-.66,2.54-.24,5.11-1.23,8.29-2.45,6.34-2.45,11.75-4.74,11.75-4.74Z"/><path class="cls-4" d="M339.36,123.12l-4.28,1.63s0-.31-.14-.83c-.54-3-2.9-12.9-10.24-11.27,1.06-2.31,11.46-4.11,14.22,7.95A24.34,24.34,0,0,1,339.36,123.12Z"/><path class="cls-4" d="M343.65,138.5a3.45,3.45,0,0,1-2-.3,6.28,6.28,0,0,1-2.32-2.06,12.09,12.09,0,0,1-1.68-9.6,6.14,6.14,0,0,1,1.48-2.72,3.37,3.37,0,0,1,1.79-1c2.66-.47,5.43,2.66,6.19,7S346.31,138,343.65,138.5Z"/><path class="cls-21" d="M345.43,134.92a1.77,1.77,0,0,1-.91-.07,1.48,1.48,0,0,1-.27-.1,3.12,3.12,0,0,1-.8-.57,4,4,0,0,1-.56-.64,7.11,7.11,0,0,1-1-5.63,3.8,3.8,0,0,1,.31-.8,2.74,2.74,0,0,1,.56-.79.93.93,0,0,1,.18-.16,1.71,1.71,0,0,1,.87-.41c1.56-.28,3.18,1.56,3.63,4.09S347,134.65,345.43,134.92Z"/><path class="cls-7" d="M345.06,135a2.31,2.31,0,0,1-1.6,1.35,1.88,1.88,0,0,1-.91-.07l-.26-.11a3,3,0,0,1-.81-.56,3.85,3.85,0,0,1-.55-.64,7.08,7.08,0,0,1-1-5.5,7.73,7.73,0,0,0,.1,1.71,6.72,6.72,0,0,0,1.09,2.71,3.53,3.53,0,0,0,1.36,1.2,1.83,1.83,0,0,0,1.18.18Z"/><path class="cls-21" d="M343.65,138.5l-3.8.66c-2.66.47-5.43-2.65-6.18-7s.78-8.21,3.44-8.68l3.8-.66a3.37,3.37,0,0,0-1.79,1,6.14,6.14,0,0,0-1.48,2.72,12.09,12.09,0,0,0,1.68,9.6,6.28,6.28,0,0,0,2.32,2.06A3.45,3.45,0,0,0,343.65,138.5Z"/><path class="cls-7" d="M339.36,123.12l-4.28,1.63s0-.31-.14-.83c1-1.88,2.47-3.14,4-3.32A24.34,24.34,0,0,1,339.36,123.12Z"/><path class="cls-13" d="M345.43,134.92l-.37.07-1.42.27a1.83,1.83,0,0,1-1.18-.18,3.53,3.53,0,0,1-1.36-1.2,6.72,6.72,0,0,1-1.09-2.71,7.73,7.73,0,0,1-.1-1.71h0a5.56,5.56,0,0,1,.21-1.2,3.53,3.53,0,0,1,.86-1.59,1.91,1.91,0,0,1,1.06-.57l1.79-.34a1.71,1.71,0,0,0-.87.41.93.93,0,0,0-.18.16,2.74,2.74,0,0,0-.56.79s0,0,0,0a4.5,4.5,0,0,0-.29.78,7.11,7.11,0,0,0,1,5.63,4,4,0,0,0,.56.64,3.12,3.12,0,0,0,.8.57,1.48,1.48,0,0,0,.27.1,2.2,2.2,0,0,0,.57.1A1.27,1.27,0,0,0,345.43,134.92Z"/><path class="cls-23" d="M362.74,198.28c-1.23,2.13-2.31,3.49-2.79,3.45a6.5,6.5,0,0,1-1.41-.5c-3.9-1.73-14-7.67-15.87-13,.54-.94,1.07-1.85,1.6-2.75C347.11,188.14,356,196.15,362.74,198.28Z"/><path class="cls-7" d="M358.54,201.23c-1.76,2.25-5.11,6.36-8.59,10-6.07-5.86-8.56-13.95-9.55-19.1l2.27-3.91C344.52,193.56,354.64,199.5,358.54,201.23Z"/><path class="cls-14" d="M289.39,252.36c-4.88,4.78-7.21,17.41-8.36,17.29a40.3,40.3,0,0,1-4.51-1.16c1.25-7.81,2.87-14.09,4.9-17.55,2.13-3.62,6.87-6.31,12.68-8.33a32.09,32.09,0,0,1,3,4.82C297.3,248.46,294.44,247.43,289.39,252.36Z"/><path class="cls-24" d="M349.47,246.75s-1.61,6.4,6.1,9.38"/><g class="cls-15"><path class="cls-16" d="M347.47,251.24l-2.23.19"/><path class="cls-25" d="M340.64,251.93c-12,1.43-36.15,5.36-39.9,14.06-4.24,9.83-11.21,58.07-13.32,73.15"/><path class="cls-16" d="M287.11,341.43l-.31,2.23"/></g><path class="cls-26" d="M291.12,362.21H253.54a6.08,6.08,0,0,1,1-3.28c2.16-3.42,7.4-5.73,11.41-7.28,2-.77,3.69-1.36,4.55-1.8,3.09-1.61,2.67-5.73,2.67-5.73a13.06,13.06,0,0,0,3.42,2.2c.32.14.64.27,1,.38h0a18,18,0,0,0,11.48-.14c.19-.07.43-.55.73-1.39l.5,6.42.58,7.34Z"/><line class="cls-27" x1="289.78" y1="345.17" x2="289.78" y2="345.17"/><path class="cls-26" d="M238.8,344.42s-1.07,2.8-2.51,6.18c-1.14,2.68-2.51,5.73-3.78,8-1.16,2.11-2.22,3.58-2.91,3.58-2.41,0-27.83-14.54-30.35-21.53a8.21,8.21,0,0,1,2.93-1.7c3.53-1.17,7.67,0,12.29.33a31.09,31.09,0,0,0,3.22.07c7.33-.27,6.75-3.82,6.75-3.82.11.51,1.62,1.66,3.63,3,.8.52,1.68,1.06,2.57,1.6C234.3,342.31,238.31,344.42,238.8,344.42Z"/><path class="cls-7" d="M276.59,346.32c-1.12,6-5.15,8.54-7.17,8.26-1.73-.24-3-2.12-3.47-2.93,2-.77,3.69-1.36,4.55-1.8,3.09-1.61,2.67-5.73,2.67-5.73A13.06,13.06,0,0,0,276.59,346.32Z"/><path class="cls-7" d="M228.07,338.52c-3.09,4.91-9.82,5.64-11.53,5.14-1.37-.41-1.89-2.91-2.07-4.35a31.09,31.09,0,0,0,3.22.07c7.33-.27,6.75-3.82,6.75-3.82C224.55,336.07,226.06,337.22,228.07,338.52Z"/><path class="cls-7" d="M232.51,358.63c-1.16,2.11-2.22,3.58-2.91,3.58-2.41,0-27.83-14.54-30.35-21.53a8.21,8.21,0,0,1,2.93-1.7C206.49,343,221.32,356.31,232.51,358.63Z"/><path class="cls-7" d="M238.8,344.42s-1.07,2.8-2.51,6.18l-5.65-10.48C234.3,342.31,238.31,344.42,238.8,344.42Z"/><path class="cls-7" d="M290.28,351.59c-5.6-.06-12.44-4.69-12.71-4.89a18,18,0,0,0,11.48-.14c.19-.07.43-.55.73-1.39Z"/><path class="cls-28" d="M210.07,197.49a9,9,0,0,1,5.84-5.84c4.7-1.49,11.86,1.83,13.92,2.52s.51,3.32.51,3.32Z"/><polygon class="cls-29" points="220.02 197.49 222.73 192.75 270.57 192.75 268.74 197.49 220.02 197.49"/><polygon class="cls-30" points="270.57 192.75 299.75 194.52 300.74 197.49 268.74 197.49 270.57 192.75"/><path class="cls-5" d="M353.43,362.21H328.69a3.09,3.09,0,0,1-3.08-3.39,3.18,3.18,0,0,1,3.21-2.79h0a9,9,0,0,0,9-9V284.86h6.42V347a9,9,0,0,0,9,9h0a3.18,3.18,0,0,1,3.21,2.79A3.09,3.09,0,0,1,353.43,362.21Z"/><path class="cls-7" d="M353.43,362.21H333.5a3.09,3.09,0,0,1-3.08-3.39,3.19,3.19,0,0,1,3.22-2.79h0a9,9,0,0,0,9-9V284.86h1.6V347a9,9,0,0,0,9,9h0a3.18,3.18,0,0,1,3.21,2.79A3.09,3.09,0,0,1,353.43,362.21Z"/><path class="cls-8" d="M426.33,155.59l0,.06L383.14,284.86H306.58a3.79,3.79,0,0,1-3.74-4.41l1.27-7.63a3.77,3.77,0,0,1,3.73-3.17h54.62a5.88,5.88,0,0,0,5.56-3.91l41.32-115.49a5.13,5.13,0,0,1,6.17-3.22l7.3,2A5.13,5.13,0,0,1,426.33,155.59Z"/><path class="cls-7" d="M426.31,155.65,383.14,284.86H310.71l.72-4.37a3.81,3.81,0,0,1,3.74-3.17H369.8a5.9,5.9,0,0,0,5.56-3.91l41.32-115.49a5.12,5.12,0,0,1,6.17-3.22Z"/><path class="cls-4" d="M344.27,278.61a1.63,1.63,0,0,1-1.61-1.61V233.84a1.61,1.61,0,0,1,1.61-1.61h38.26a1.61,1.61,0,0,1,1.2,2.68l-38.26,43.16A1.6,1.6,0,0,1,344.27,278.61Zm1.6-43.16v37.32L379,235.45Z"/><path class="cls-5" d="M349.33,277a5.07,5.07,0,1,1-5.06-5.06A5.06,5.06,0,0,1,349.33,277Z"/><path class="cls-5" d="M391.39,237.05h-65.7a3.21,3.21,0,0,1-3.21-3.21h0a3.21,3.21,0,0,1,3.21-3.21h65.7a3.21,3.21,0,0,1,3.2,3.21h0A3.21,3.21,0,0,1,391.39,237.05Z"/><path class="cls-31" d="M174.61,214.67H119.9a8.15,8.15,0,0,1-2.38-.34,8.59,8.59,0,0,1,2.38-16.84h54.71a8.59,8.59,0,0,0-6.07,2.52,8.63,8.63,0,0,0-2.52,6.07A8.59,8.59,0,0,0,174.61,214.67Z"/><path class="cls-32" d="M320.44,206.08a8.57,8.57,0,0,1-8.59,8.59H174.61a8.59,8.59,0,0,1-8.59-8.59,8.63,8.63,0,0,1,2.52-6.07,8.59,8.59,0,0,1,6.07-2.52H311.85A8.59,8.59,0,0,1,320.44,206.08Z"/><path class="cls-7" d="M298.91,211.22a7.55,7.55,0,0,1-.85,3.45H119.9a8.15,8.15,0,0,1-2.38-.34,7.3,7.3,0,0,1-.7-3.11,8,8,0,0,1,3-6.07,11,11,0,0,1,7.16-2.52H288.78C294.38,202.63,298.91,206.48,298.91,211.22Z"/><polygon class="cls-13" points="137.71 214.67 99.26 362.21 93.23 362.21 131.67 214.67 137.71 214.67"/><polygon class="cls-7" points="137.71 214.67 99.26 362.21 95.96 362.21 134.4 214.67 137.71 214.67"/><polygon class="cls-4" points="193.09 214.67 154.65 362.21 148.61 362.21 187.05 214.67 193.09 214.67"/><polygon class="cls-7" points="193.09 214.67 154.65 362.21 151.82 362.21 190.26 214.67 193.09 214.67"/><polygon class="cls-4" points="337.85 362.21 331.81 362.21 293.37 214.67 299.41 214.67 337.85 362.21"/><polygon class="cls-7" points="337.85 362.21 335.02 362.21 296.57 214.67 299.41 214.67 337.85 362.21"/><path class="cls-11" d="M364.66,83.58H278.51a5.38,5.38,0,0,1-5.38-5.38h0a5.38,5.38,0,0,1,5.38-5.38h86.15A5.38,5.38,0,0,1,370,78.2h0A5.38,5.38,0,0,1,364.66,83.58Z"/><path class="cls-33" d="M292.87,104h0a2.77,2.77,0,0,1-2.78-2.77V83.58h5.55V101.2A2.77,2.77,0,0,1,292.87,104Z"/><path class="cls-33" d="M350.49,104h0a2.77,2.77,0,0,1-2.78-2.77V83.58h5.56V101.2A2.78,2.78,0,0,1,350.49,104Z"/><rect class="cls-33" x="297.11" y="43.03" width="5.75" height="29.78" rx="1.6"/><rect class="cls-33" x="336.83" y="43.03" width="5.76" height="29.78" rx="1.6"/><rect class="cls-2" x="302.87" y="43.03" width="10.44" height="29.78" rx="2.16"/><rect class="cls-6" x="321.54" y="43.03" width="10.44" height="29.78" rx="2.16" transform="translate(42.3 -112.99) rotate(20.95)"/><path class="cls-8" d="M183.25,325,162,333.64l-26.17-64.38a11.46,11.46,0,0,1,6.3-14.93h0a11.46,11.46,0,0,1,14.93,6.3Z"/><line class="cls-34" x1="142.16" y1="254.33" x2="169.84" y2="320.06"/><path class="cls-6" d="M173.3,333.08l-17.44-6.76a2.1,2.1,0,0,1-1.2-2.72l13.69-35.33a11.47,11.47,0,0,1,14.83-6.53h0a11.46,11.46,0,0,1,6.54,14.82L176,331.88A2.1,2.1,0,0,1,173.3,333.08Z"/><line class="cls-34" x1="183.18" y1="281.74" x2="166.77" y2="322.27"/><path class="cls-6" d="M192.3,325.44l-2,10.91-3.61,20.14a6.77,6.77,0,0,1-6.69,5.72H153.49a6.78,6.78,0,0,1-6.69-5.72l-5.57-31.05a6.78,6.78,0,0,1,6.7-7.82H185.6A6.78,6.78,0,0,1,192.3,325.44Z"/><path class="cls-7" d="M190.34,336.35l-3.61,20.14a6.77,6.77,0,0,1-6.69,5.72H160.88l-3.24-18a6.78,6.78,0,0,1,6.7-7.82Z"/><rect class="cls-8" x="137.92" y="312.73" width="57.69" height="14.66" rx="5.63"/><path class="cls-8" d="M460.18,308.51H437.24l-.09-2.49-1.72-44.75-.36-9.4a11.45,11.45,0,0,1,11-11.89h.45A11.46,11.46,0,0,1,458,251l.4,10.28.24,6.28.51,13.3.62,16.19Z"/><line class="cls-34" x1="446.07" y1="239.98" x2="449.71" y2="308.51"/><path class="cls-6" d="M479.22,288.36a11.36,11.36,0,0,1-2.82,7.52l-11,12.63H435l2.17-2.49,11.61-13.31,10.35-11.86,0,0a11.45,11.45,0,0,1,20.08,7.54Z"/><line class="cls-34" x1="475.3" y1="279.72" x2="449.71" y2="308.51"/><rect class="cls-8" x="134.37" y="126.48" width="61.9" height="71.01" rx="3.94"/><rect class="cls-5" x="136.26" y="137.49" width="65.86" height="48.99" rx="1.37" transform="translate(331.18 -7.21) rotate(90)"/><polygon class="cls-23" points="146.05 197.49 138.71 197.49 157.94 126.48 165.28 126.48 146.05 197.49"/><polygon class="cls-23" points="165.58 197.49 150.71 197.49 169.93 126.48 184.8 126.48 165.58 197.49"/><rect class="cls-6" x="118.83" y="126.48" width="22.91" height="71.01" rx="2.4"/><path class="cls-7" d="M137.2,181.86h-4a1.22,1.22,0,0,1-1.22-1.22h0a1.21,1.21,0,0,1,1.22-1.22h4a1.22,1.22,0,0,1,1.22,1.22h0A1.22,1.22,0,0,1,137.2,181.86Z"/><path class="cls-7" d="M126.5,181.86h-4a1.22,1.22,0,0,1-1.22-1.22h0a1.21,1.21,0,0,1,1.22-1.22h4a1.22,1.22,0,0,1,1.22,1.22h0A1.22,1.22,0,0,1,126.5,181.86Z"/><path class="cls-35" d="M171.44,197.49c-5.28,1.69-5.89,10.36-6.49,18.75-.63,8.7-1.21,16.92-6.46,19.18a3.28,3.28,0,0,1-1.35.29,3.82,3.82,0,0,1-2.7-1.27c-5.77-5.7-8.33-30.72-.46-49.62,2.87-6.89,7.81-14.61,16.2-19.2q-.39,1-.75,1.95c-7.27,4.49-11.65,11.47-14.27,17.75-7.54,18.13-5.23,42.87.18,48.2a2.26,2.26,0,0,0,2.64.72c4.53-2,5.12-10.16,5.68-18.09.55-7.6,1.1-15.4,5.08-18.66Z"/><path class="cls-35" d="M188.32,162.19a.68.68,0,0,1-.65.64h-.44c-1,0-1.93,0-2.86.1.23-.45.46-.89.71-1.33.7,0,1.41-.06,2.15-.06h.45A.65.65,0,0,1,188.32,162.19Z"/><path class="cls-35" d="M263.07,195.12a.66.66,0,0,1-.65.65c-.49,0-32.12.22-58.05.63-14.21.22-26.71.49-31.43.81a6.34,6.34,0,0,0-1.5.28h-2.7a7.05,7.05,0,0,1,4.11-1.56c4.57-.31,16.36-.57,29.94-.79,26.22-.43,59.13-.66,59.63-.66A.65.65,0,0,1,263.07,195.12Z"/><path class="cls-36" d="M171.23,163l-.64,1.56c-7.71,2.66-18.32,9-20.29,24.12-1.53,11.63-.51,21.21.31,28.9.94,8.78,1.57,14.58-2.49,17.23-2.08,1.35-5.59,3.2-9.24,3.2a9.49,9.49,0,0,1-4-.86c-4.41-2-7.22-7.61-8.34-16.55-2.07-16.35-.22-31.47,4.59-37.63a7,7,0,0,1,4.67-2.95.64.64,0,0,1,.15,1.28,5.81,5.81,0,0,0-3.81,2.46c-4.61,5.91-6.35,20.65-4.33,36.68,1.07,8.47,3.62,13.7,7.61,15.55,4.35,2,9.4-.55,12-2.26,3.39-2.22,2.81-7.7,1.91-16-.82-7.75-1.85-17.41-.31-29.2C151.18,172.08,163.16,165.56,171.23,163Z"/><path class="cls-5" d="M130.28,143.57h0a6,6,0,0,1-6-6h0a6,6,0,0,1,6-6h0a6,6,0,0,1,6,6h0A6,6,0,0,1,130.28,143.57Z"/><path class="cls-5" d="M132.27,147h-4a1.23,1.23,0,0,1-1.23-1.22h0a1.22,1.22,0,0,1,1.23-1.22h4a1.22,1.22,0,0,1,1.22,1.22h0A1.22,1.22,0,0,1,132.27,147Z"/><path class="cls-5" d="M132.27,150.45h-4a1.23,1.23,0,0,1-1.23-1.23h0A1.23,1.23,0,0,1,128.3,148h4a1.22,1.22,0,0,1,1.22,1.22h0A1.23,1.23,0,0,1,132.27,150.45Z"/><path class="cls-7" d="M137.94,154.52H122.63a1.23,1.23,0,0,1-1.23-1.22h0a1.22,1.22,0,0,1,1.23-1.22h15.31a1.22,1.22,0,0,1,1.22,1.22h0A1.22,1.22,0,0,1,137.94,154.52Z"/><path class="cls-7" d="M137.94,160.31H122.63a1.23,1.23,0,0,1-1.23-1.23h0a1.23,1.23,0,0,1,1.23-1.22h15.31a1.22,1.22,0,0,1,1.22,1.22h0A1.23,1.23,0,0,1,137.94,160.31Z"/><path class="cls-7" d="M137.94,166.09H122.63a1.23,1.23,0,0,1-1.23-1.22h0a1.22,1.22,0,0,1,1.23-1.22h15.31a1.22,1.22,0,0,1,1.22,1.22h0A1.22,1.22,0,0,1,137.94,166.09Z"/><path class="cls-7" d="M137.94,171.88H122.63a1.23,1.23,0,0,1-1.23-1.23h0a1.23,1.23,0,0,1,1.23-1.22h15.31a1.22,1.22,0,0,1,1.22,1.22h0A1.23,1.23,0,0,1,137.94,171.88Z"/><path class="cls-5" d="M124.35,175.78a1.2,1.2,0,1,1-2.4,0,1.2,1.2,0,0,1,2.4,0Z"/><path class="cls-5" d="M128.76,175.78a1.2,1.2,0,1,1-2.4,0,1.2,1.2,0,0,1,2.4,0Z"/><path class="cls-5" d="M133.17,175.78a1.2,1.2,0,0,1-2.4,0,1.2,1.2,0,0,1,2.4,0Z"/><path class="cls-5" d="M137.59,175.78a1.21,1.21,0,1,1-1.21-1.2A1.2,1.2,0,0,1,137.59,175.78Z"/><rect class="cls-37" x="179.31" y="96.91" width="67.13" height="72.63" rx="2.41"/><rect class="cls-19" x="176.11" y="96.91" width="67.12" height="72.63" rx="2.4"/><path class="cls-7" d="M231.75,111.8v57.74H178.51a2.4,2.4,0,0,1-2.4-2.41V109.4h53.24A2.4,2.4,0,0,1,231.75,111.8Z"/><path class="cls-7" d="M201,141.06c0,6.38-2,11.8-4.7,13.77a3.86,3.86,0,0,1-2.29.8,3.81,3.81,0,0,1-2.17-.72C189,153,187,147.52,187,141.06c0-8.05,3.12-14.58,7-14.58S201,133,201,141.06Z"/><path class="cls-4" d="M198.8,141.8c0,3.75-1.16,6.94-2.76,8.1a2.35,2.35,0,0,1-1.35.47,2.21,2.21,0,0,1-1.28-.43c-1.65-1.12-2.83-4.34-2.83-8.14,0-4.74,1.84-8.58,4.11-8.58S198.8,137.06,198.8,141.8Z"/><path class="cls-13" d="M197.63,141.8c0,3.75-1.16,6.94-2.77,8.1a2.3,2.3,0,0,1-1.34.47,2.21,2.21,0,0,1-1.28-.43c-1.65-1.12-2.83-4.34-2.83-8.14,0-4.74,1.83-8.58,4.11-8.58S197.63,137.06,197.63,141.8Z"/><path class="cls-4" d="M204.9,197.49H161.06s.79-4.35,2.4-10.71c.35-1.38.74-2.85,1.17-4.38,1.26-4.53,2.85-9.67,4.8-14.83q.36-1,.75-1.95h0c.13-.34.27-.69.41-1l.64-1.56c3.69-8.72,8.39-16.94,14.18-21.67a21.58,21.58,0,0,1,2.55-1.81,16.38,16.38,0,0,1,4.72-2c3.87-.9,2.9,8,1.75,9.72a126.19,126.19,0,0,0-9.35,14.28c-.25.44-.48.88-.71,1.33-3.85,7.38-6.92,16.07-5.06,23.1.06.23.31.46.7.71,3.31,2.13,17.39,5.11,22.78,8.4a6.36,6.36,0,0,1,1.58,1.26A1.89,1.89,0,0,1,204.9,197.49Z"/><path class="cls-7" d="M194.43,147.32c-1.14,1.75-19,23.92-15.12,38.71.06.23.31.46.7.71-2.64-.93-5.12-2.6-4.75-5.59.31-19.71,16.2-34.68,15-38.44a5.77,5.77,0,0,0-2.27-3.16,16.38,16.38,0,0,1,4.72-2C196.55,136.7,195.58,145.56,194.43,147.32Z"/><path class="cls-7" d="M191.3,197.49H161.06s.79-4.35,2.4-10.71c1.86,5.41,6.8,7.76,14.09,8.35A63.34,63.34,0,0,1,191.3,197.49Z"/><path class="cls-23" d="M181.07,152.15c-9.17,9.44-11.15,28.08-13.14,29.88a2.6,2.6,0,0,1-3.3.37c3.77-13.62,10.6-32.74,20.78-41C186.35,143.81,185.55,147.53,181.07,152.15Z"/><rect class="cls-4" x="186.24" y="160.49" width="3.2" height="3.2" rx="1.34"/><rect class="cls-4" x="202.56" y="160.49" width="3.2" height="3.2" rx="1.25"/><rect class="cls-4" x="207.49" y="160.49" width="3.2" height="3.2" rx="1.25"/><rect class="cls-4" x="212.41" y="160.49" width="3.2" height="3.2" rx="1.25"/><rect class="cls-4" x="187.67" y="115.58" width="14.66" height="4.81"/></g></g></g></svg>